<?xml version="1.0" encoding="UTF-8"?>
<svg width="231px" height="254px" viewBox="0 0 231 254" version="1.1" xmlns="http://www.w3.org/2000/svg" xmlns:xlink="http://www.w3.org/1999/xlink">
    <!-- Generator: Sketch 50.2 (55047) - http://www.bohemiancoding.com/sketch -->
    <title>Logo</title>
    <desc>Created with Sketch.</desc>
    <defs></defs>
    <g id="Symbols" stroke="none" stroke-width="1" fill="none" fill-rule="evenodd">
        <g id="Logo">
            <g>
                <polygon id="Fill-8" fill="#D95351" points="114.9468 219.1578 58.5058 184.3598 58.5058 253.9558"></polygon>
                <polygon id="Fill-9" fill="#DC645C" points="58.467 182.4524 114.908 217.2504 114.908 147.6544"></polygon>
                <polygon id="Fill-10" fill="#D95351" points="57.1256 182.4524 0.6846 147.6544 0.6846 217.2504"></polygon>
                <polygon id="Fill-11" fill="#E38274" points="57.1256 108.8415 0.6846 74.0435 0.6846 143.6395"></polygon>
                <polygon id="Fill-12" fill="#E07368" points="0.6457 145.7468 57.0867 180.5448 57.0867 110.9488"></polygon>
                <polygon id="Fill-13" fill="#DC645C" points="172.7223 182.4524 116.2823 217.2504 116.2823 147.6544"></polygon>
                <polygon id="Fill-14" fill="#E07368" points="58.467 35.0309 114.908 69.8289 114.908 0.2329"></polygon>
                <polygon id="Fill-15" fill="#E07368" points="172.7223 35.0309 116.2823 69.8289 116.2823 0.2329"></polygon>
                <polygon id="Fill-16" fill="#E07368" points="0.6457 71.9361 57.0867 106.7341 57.0867 37.1381"></polygon>
                <polygon id="Fill-17" fill="#E79282" points="114.9011 71.9361 58.4601 106.7341 58.4601 37.1381"></polygon>
                <polygon id="Fill-18" fill="#D95351" points="174.018 182.4524 230.458 147.6544 230.458 217.2504"></polygon>
                <polygon id="Fill-19" fill="#E38274" points="174.018 108.8415 230.458 74.0435 230.458 143.6395"></polygon>
                <polygon id="Fill-20" fill="#E07368" points="230.4978 145.7468 174.0568 180.5448 174.0568 110.9488"></polygon>
                <polygon id="Fill-21" fill="#E07368" points="230.4978 71.9361 174.0568 106.7341 174.0568 37.1381"></polygon>
                <polygon id="Fill-22" fill="#E79282" points="116.2425 71.9361 172.6825 106.7341 172.6825 37.1381"></polygon>
                <polygon id="Fill-23" fill="#D95351" points="116.2425 219.1578 172.6825 184.3598 172.6825 253.9558"></polygon>
            </g>
        </g>
    </g>
</svg>